<?xml version="1.0" encoding="UTF-8" standalone="no"?><!-- Generator: Gravit.io --><svg xmlns="http://www.w3.org/2000/svg" xmlns:xlink="http://www.w3.org/1999/xlink" style="isolation:isolate" viewBox="6 9.569 152.203 37.431" width="152.203pt" height="37.431pt"><g><path d=" M 27.973 42.342 L 27.594 40.188 L 27 36.812 L 38.062 34.865 L 39.046 40.453 L 39.046 40.453 Q 39.328 42.059 38.839 43.419 L 38.839 43.419 L 38.839 43.419 Q 38.349 44.78 37.163 45.687 L 37.163 45.687 L 37.163 45.687 Q 35.977 46.595 34.322 46.887 L 34.322 46.887 L 34.322 46.887 Q 31.872 47.318 30.148 46.109 L 30.148 46.109 L 30.148 46.109 Q 28.424 44.9 27.973 42.342 L 27.973 42.342 Z  M 35.54 38.789 L 30.71 39.639 L 31.1 41.851 L 31.1 41.851 Q 31.272 42.832 31.95 43.244 L 31.95 43.244 L 31.95 43.244 Q 32.627 43.655 33.696 43.467 L 33.696 43.467 L 33.696 43.467 Q 34.869 43.26 35.477 42.608 L 35.477 42.608 L 35.477 42.608 Q 36.086 41.955 35.936 41.04 L 35.936 41.04 L 35.54 38.789 Z " fill="rgb(220,20,60)"/><path d=" M 22 23.5 L 19 23.5 L 19 22.5 L 15 22.5 L 15 28.5 L 19 28.5 L 19 27.5 L 22 27.5 L 22 31.5 L 12 31.5 L 12 19.5 L 22 19.5 L 22 23.5 L 22 23.5 Z  M 42 36.982 C 36.359 38.938 30.303 40 24 40 C 17.697 40 11.641 38.938 6 36.982 L 6 14.5 C 6 11.74 8.24 9.531 11 9.569 L 37 9.931 C 39.76 9.969 42 12.24 42 15 L 42 36.982 L 42 36.982 Z  M 36 23.5 L 33 23.5 L 33 22.5 L 29 22.5 L 29 28.5 L 33 28.5 L 33 27.5 L 36 27.5 L 36 31.5 L 26 31.5 L 26 19.5 L 36 19.5 L 36 23.5 Z " fill-rule="evenodd" fill="rgb(25,25,25)"/><path d=" M 56.742 25.316 L 56.742 25.516 L 56.742 25.516 Q 56.742 28.633 55.453 30.309 L 55.453 30.309 L 55.453 30.309 Q 54.164 31.984 51.82 31.984 L 51.82 31.984 L 51.82 31.984 Q 49.887 31.984 48.703 30.449 L 48.703 30.449 L 48.539 31.75 L 45 31.75 L 45 13.75 L 48.949 13.75 L 48.949 20.09 L 48.949 20.09 Q 50.051 18.836 51.797 18.836 L 51.797 18.836 L 51.797 18.836 Q 54.164 18.836 55.453 20.535 L 55.453 20.535 L 55.453 20.535 Q 56.742 22.234 56.742 25.316 L 56.742 25.316 Z  M 52.781 25.27 L 52.781 25.27 L 52.781 25.27 Q 52.781 23.441 52.295 22.662 L 52.295 22.662 L 52.295 22.662 Q 51.809 21.883 50.801 21.883 L 50.801 21.883 L 50.801 21.883 Q 49.465 21.883 48.949 22.902 L 48.949 22.902 L 48.949 27.941 L 48.949 27.941 Q 49.453 28.949 50.824 28.949 L 50.824 28.949 L 50.824 28.949 Q 52.219 28.949 52.594 27.59 L 52.594 27.59 L 52.594 27.59 Q 52.781 26.922 52.781 25.27 Z  M 69.574 31.75 L 65.625 31.75 L 65.625 31.75 Q 65.414 31.363 65.25 30.613 L 65.25 30.613 L 65.25 30.613 Q 64.16 31.984 62.203 31.984 L 62.203 31.984 L 62.203 31.984 Q 60.41 31.984 59.156 30.9 L 59.156 30.9 L 59.156 30.9 Q 57.902 29.816 57.902 28.176 L 57.902 28.176 L 57.902 28.176 Q 57.902 26.113 59.426 25.059 L 59.426 25.059 L 59.426 25.059 Q 60.949 24.004 63.855 24.004 L 63.855 24.004 L 65.074 24.004 L 65.074 23.336 L 65.074 23.336 Q 65.074 21.59 63.563 21.59 L 63.563 21.59 L 63.563 21.59 Q 62.156 21.59 62.156 22.973 L 62.156 22.973 L 58.207 22.973 L 58.207 22.973 Q 58.207 21.133 59.771 19.984 L 59.771 19.984 L 59.771 19.984 Q 61.336 18.836 63.762 18.836 L 63.762 18.836 L 63.762 18.836 Q 66.188 18.836 67.594 20.02 L 67.594 20.02 L 67.594 20.02 Q 69 21.203 69.035 23.266 L 69.035 23.266 L 69.035 28.879 L 69.035 28.879 Q 69.059 30.625 69.574 31.551 L 69.574 31.551 L 69.574 31.75 Z  M 63.152 29.172 L 63.152 29.172 L 63.152 29.172 Q 63.891 29.172 64.377 28.855 L 64.377 28.855 L 64.377 28.855 Q 64.863 28.539 65.074 28.141 L 65.074 28.141 L 65.074 26.113 L 63.926 26.113 L 63.926 26.113 Q 61.863 26.113 61.863 27.965 L 61.863 27.965 L 61.863 27.965 Q 61.863 28.504 62.227 28.838 L 62.227 28.838 L 62.227 28.838 Q 62.59 29.172 63.152 29.172 Z  M 71.145 19.07 L 74.848 19.07 L 74.977 20.559 L 74.977 20.559 Q 76.289 18.836 78.598 18.836 L 78.598 18.836 L 78.598 18.836 Q 80.578 18.836 81.557 20.02 L 81.557 20.02 L 81.557 20.02 Q 82.535 21.203 82.57 23.582 L 82.57 23.582 L 82.57 31.75 L 78.609 31.75 L 78.609 23.746 L 78.609 23.746 Q 78.609 22.785 78.223 22.334 L 78.223 22.334 L 78.223 22.334 Q 77.836 21.883 76.816 21.883 L 76.816 21.883 L 76.816 21.883 Q 75.656 21.883 75.094 22.797 L 75.094 22.797 L 75.094 31.75 L 71.145 31.75 L 71.145 19.07 Z  M 84.293 25.457 L 84.293 25.316 L 84.293 25.316 Q 84.293 23.395 84.926 21.918 L 84.926 21.918 L 84.926 21.918 Q 85.559 20.441 86.742 19.639 L 86.742 19.639 L 86.742 19.639 Q 87.926 18.836 89.496 18.836 L 89.496 18.836 L 89.496 18.836 Q 91.477 18.836 92.59 20.172 L 92.59 20.172 L 92.73 19.07 L 96.316 19.07 L 96.316 31.27 L 96.316 31.27 Q 96.316 32.945 95.537 34.182 L 95.537 34.182 L 95.537 34.182 Q 94.758 35.418 93.281 36.08 L 93.281 36.08 L 93.281 36.08 Q 91.805 36.742 89.859 36.742 L 89.859 36.742 L 89.859 36.742 Q 88.465 36.742 87.158 36.215 L 87.158 36.215 L 87.158 36.215 Q 85.852 35.688 85.16 34.844 L 85.16 34.844 L 86.813 32.523 L 86.813 32.523 Q 87.914 33.824 89.719 33.824 L 89.719 33.824 L 89.719 33.824 Q 92.344 33.824 92.344 31.129 L 92.344 31.129 L 92.344 30.73 L 92.344 30.73 Q 91.207 31.984 89.473 31.984 L 89.473 31.984 L 89.473 31.984 Q 87.152 31.984 85.723 30.209 L 85.723 30.209 L 85.723 30.209 Q 84.293 28.434 84.293 25.457 L 84.293 25.457 Z  M 88.254 25.563 L 88.254 25.563 L 88.254 25.563 Q 88.254 27.121 88.84 28.029 L 88.84 28.029 L 88.84 28.029 Q 89.426 28.938 90.48 28.938 L 90.48 28.938 L 90.48 28.938 Q 91.758 28.938 92.344 28.082 L 92.344 28.082 L 92.344 22.75 L 92.344 22.75 Q 91.77 21.883 90.504 21.883 L 90.504 21.883 L 90.504 21.883 Q 89.449 21.883 88.852 22.826 L 88.852 22.826 L 88.852 22.826 Q 88.254 23.77 88.254 25.563 Z  M 104.695 31.984 L 104.695 31.984 L 104.695 31.984 Q 101.777 31.984 99.973 30.244 L 99.973 30.244 L 99.973 30.244 Q 98.168 28.504 98.168 25.715 L 98.168 25.715 L 98.168 25.387 L 98.168 25.387 Q 98.168 23.441 98.889 21.953 L 98.889 21.953 L 98.889 21.953 Q 99.609 20.465 100.992 19.65 L 100.992 19.65 L 100.992 19.65 Q 102.375 18.836 104.273 18.836 L 104.273 18.836 L 104.273 18.836 Q 106.945 18.836 108.492 20.494 L 108.492 20.494 L 108.492 20.494 Q 110.039 22.152 110.039 25.117 L 110.039 25.117 L 110.039 26.652 L 102.188 26.652 L 102.188 26.652 Q 102.398 27.719 103.113 28.328 L 103.113 28.328 L 103.113 28.328 Q 103.828 28.938 104.965 28.938 L 104.965 28.938 L 104.965 28.938 Q 106.84 28.938 107.895 27.625 L 107.895 27.625 L 109.699 29.758 L 109.699 29.758 Q 108.961 30.777 107.607 31.381 L 107.607 31.381 L 107.607 31.381 Q 106.254 31.984 104.695 31.984 Z  M 104.25 21.883 L 104.25 21.883 L 104.25 21.883 Q 102.516 21.883 102.188 24.18 L 102.188 24.18 L 106.172 24.18 L 106.172 23.875 L 106.172 23.875 Q 106.195 22.926 105.691 22.404 L 105.691 22.404 L 105.691 22.404 Q 105.188 21.883 104.25 21.883 Z  M 119.367 18.977 L 119.297 22.645 L 117.996 22.551 L 117.996 22.551 Q 116.133 22.551 115.605 23.723 L 115.605 23.723 L 115.605 31.75 L 111.656 31.75 L 111.656 19.07 L 115.359 19.07 L 115.488 20.699 L 115.488 20.699 Q 116.484 18.836 118.266 18.836 L 118.266 18.836 L 118.266 18.836 Q 118.898 18.836 119.367 18.977 L 119.367 18.977 Z  M 131.461 31.75 L 127.512 31.75 L 127.512 31.75 Q 127.301 31.363 127.137 30.613 L 127.137 30.613 L 127.137 30.613 Q 126.047 31.984 124.09 31.984 L 124.09 31.984 L 124.09 31.984 Q 122.297 31.984 121.043 30.9 L 121.043 30.9 L 121.043 30.9 Q 119.789 29.816 119.789 28.176 L 119.789 28.176 L 119.789 28.176 Q 119.789 26.113 121.313 25.059 L 121.313 25.059 L 121.313 25.059 Q 122.836 24.004 125.742 24.004 L 125.742 24.004 L 126.961 24.004 L 126.961 23.336 L 126.961 23.336 Q 126.961 21.59 125.449 21.59 L 125.449 21.59 L 125.449 21.59 Q 124.043 21.59 124.043 22.973 L 124.043 22.973 L 120.094 22.973 L 120.094 22.973 Q 120.094 21.133 121.658 19.984 L 121.658 19.984 L 121.658 19.984 Q 123.223 18.836 125.648 18.836 L 125.648 18.836 L 125.648 18.836 Q 128.074 18.836 129.48 20.02 L 129.48 20.02 L 129.48 20.02 Q 130.887 21.203 130.922 23.266 L 130.922 23.266 L 130.922 28.879 L 130.922 28.879 Q 130.945 30.625 131.461 31.551 L 131.461 31.551 L 131.461 31.75 Z  M 125.039 29.172 L 125.039 29.172 L 125.039 29.172 Q 125.777 29.172 126.264 28.855 L 126.264 28.855 L 126.264 28.855 Q 126.75 28.539 126.961 28.141 L 126.961 28.141 L 126.961 26.113 L 125.813 26.113 L 125.813 26.113 Q 123.75 26.113 123.75 27.965 L 123.75 27.965 L 123.75 27.965 Q 123.75 28.504 124.113 28.838 L 124.113 28.838 L 124.113 28.838 Q 124.477 29.172 125.039 29.172 Z  M 133.031 19.07 L 136.734 19.07 L 136.863 20.559 L 136.863 20.559 Q 138.176 18.836 140.484 18.836 L 140.484 18.836 L 140.484 18.836 Q 142.465 18.836 143.443 20.02 L 143.443 20.02 L 143.443 20.02 Q 144.422 21.203 144.457 23.582 L 144.457 23.582 L 144.457 31.75 L 140.496 31.75 L 140.496 23.746 L 140.496 23.746 Q 140.496 22.785 140.109 22.334 L 140.109 22.334 L 140.109 22.334 Q 139.723 21.883 138.703 21.883 L 138.703 21.883 L 138.703 21.883 Q 137.543 21.883 136.98 22.797 L 136.98 22.797 L 136.98 31.75 L 133.031 31.75 L 133.031 19.07 Z  M 146.18 25.457 L 146.18 25.316 L 146.18 25.316 Q 146.18 23.395 146.813 21.918 L 146.813 21.918 L 146.813 21.918 Q 147.445 20.441 148.629 19.639 L 148.629 19.639 L 148.629 19.639 Q 149.813 18.836 151.383 18.836 L 151.383 18.836 L 151.383 18.836 Q 153.363 18.836 154.477 20.172 L 154.477 20.172 L 154.617 19.07 L 158.203 19.07 L 158.203 31.27 L 158.203 31.27 Q 158.203 32.945 157.424 34.182 L 157.424 34.182 L 157.424 34.182 Q 156.645 35.418 155.168 36.08 L 155.168 36.08 L 155.168 36.08 Q 153.691 36.742 151.746 36.742 L 151.746 36.742 L 151.746 36.742 Q 150.352 36.742 149.045 36.215 L 149.045 36.215 L 149.045 36.215 Q 147.738 35.688 147.047 34.844 L 147.047 34.844 L 148.699 32.523 L 148.699 32.523 Q 149.801 33.824 151.605 33.824 L 151.605 33.824 L 151.605 33.824 Q 154.23 33.824 154.23 31.129 L 154.23 31.129 L 154.23 30.73 L 154.23 30.73 Q 153.094 31.984 151.359 31.984 L 151.359 31.984 L 151.359 31.984 Q 149.039 31.984 147.609 30.209 L 147.609 30.209 L 147.609 30.209 Q 146.18 28.434 146.18 25.457 L 146.18 25.457 Z  M 150.141 25.563 L 150.141 25.563 L 150.141 25.563 Q 150.141 27.121 150.727 28.029 L 150.727 28.029 L 150.727 28.029 Q 151.313 28.938 152.367 28.938 L 152.367 28.938 L 152.367 28.938 Q 153.645 28.938 154.23 28.082 L 154.23 28.082 L 154.23 22.75 L 154.23 22.75 Q 153.656 21.883 152.391 21.883 L 152.391 21.883 L 152.391 21.883 Q 151.336 21.883 150.738 22.826 L 150.738 22.826 L 150.738 22.826 Q 150.141 23.77 150.141 25.563 Z " fill="rgb(25,25,25)"/></g></svg>