<svg width="24" height="24" viewBox="0 0 24 24" fill="none" xmlns="http://www.w3.org/2000/svg">
<path d="M12 6.503V9.252L15.665 5.587L12 1.922V4.67C7.95099 4.67 4.67099 7.951 4.67099 12C4.67099 13.439 5.09199 14.776 5.80699 15.903L7.14399 14.566C6.73199 13.805 6.50299 12.926 6.50299 12C6.50299 8.968 8.96799 6.503 12 6.503Z" fill="#DC143C" stroke="#DC143C" stroke-miterlimit="3" stroke-linecap="square"/>
<path d="M18.194 8.097L16.856 9.435C17.259 10.205 17.497 11.075 17.497 12C17.497 15.033 15.033 17.497 12 17.497V14.749L8.33499 18.413L12 22.078V19.33C16.049 19.33 19.33 16.049 19.33 12C19.33 10.562 18.908 9.224 18.194 8.097Z" fill="#DC143C" stroke="#DC143C" stroke-miterlimit="3" stroke-linecap="square"/>
</svg>
