<svg width="270" height="130" viewBox="0 0 270 130" fill="none" xmlns="http://www.w3.org/2000/svg">
<g filter="url(#filter0_dd)">
<rect x="25" y="25" width="220" height="80" rx="40" fill="#E0E5EC"/>
<rect x="25.5" y="25.5" width="219" height="79" rx="39.5" stroke="url(#paint0_linear)"/>
</g>
<path d="M80.973 82.7735L80.594 80.6195L80 77.2435L91.062 75.2965L92.046 80.8845C92.234 81.9551 92.165 82.9438 91.839 83.8505C91.5123 84.7578 90.9537 85.5138 90.163 86.1185C89.3723 86.7238 88.4253 87.1238 87.322 87.3185C85.6887 87.6058 84.2973 87.3465 83.148 86.5405C81.9987 85.7345 81.2737 84.4788 80.973 82.7735ZM88.54 79.2205L83.71 80.0705L84.1 82.2825C84.2147 82.9365 84.498 83.4008 84.95 83.6755C85.4013 83.9495 85.9833 84.0238 86.696 83.8985C87.478 83.7605 88.0717 83.4741 88.477 83.0395C88.883 82.6041 89.036 82.0815 88.936 81.4715L88.54 79.2205Z" fill="#DC143C"/>
<rect x="63" y="59.0005" width="27" height="15" fill="#1E90FF"/>
<path fill-rule="evenodd" clip-rule="evenodd" d="M75 63.9315H72V62.9315H68V68.9315H72V67.9315H75V71.9315H65V59.9315H75V63.9315ZM95 73.8552C95 75.9852 93.6562 77.9036 91.6025 78.4687C86.9517 79.7483 82.0553 80.4315 77 80.4315C71.9447 80.4315 67.0483 79.7483 62.3975 78.4687C60.3438 77.9036 59 75.9852 59 73.8552V54.9315C59 52.1715 61.24 49.9625 64 50.0005L90 50.3625C92.76 50.4005 95 52.6715 95 55.4315V73.8552ZM89 63.9315H86V62.9315H82V68.9315H86V67.9315H89V71.9315H79V59.9315H89V63.9315Z" fill="#191919"/>
<path d="M109.742 65.7475V65.9475C109.742 68.0255 109.312 69.6231 108.453 70.7405C107.594 71.8571 106.383 72.4155 104.82 72.4155C103.531 72.4155 102.492 71.9038 101.703 70.8805L101.539 72.1815H98V54.1815H101.949V60.5215C102.684 59.6855 103.633 59.2675 104.797 59.2675C106.375 59.2675 107.594 59.8338 108.453 60.9665C109.312 62.0991 109.742 63.6928 109.742 65.7475ZM105.781 65.7015C105.781 64.4821 105.619 63.6128 105.295 63.0935C104.971 62.5741 104.473 62.3145 103.801 62.3145C102.91 62.3145 102.293 62.6541 101.949 63.3335V68.3725C102.285 69.0445 102.91 69.3805 103.824 69.3805C104.754 69.3805 105.344 68.9275 105.594 68.0215C105.719 67.5761 105.781 66.8028 105.781 65.7015ZM122.574 72.1815H118.625C118.484 71.9235 118.359 71.5445 118.25 71.0445C117.523 71.9585 116.508 72.4155 115.203 72.4155C114.008 72.4155 112.992 72.0541 112.156 71.3315C111.32 70.6088 110.902 69.7008 110.902 68.6075C110.902 67.2321 111.41 66.1931 112.426 65.4905C113.441 64.7871 114.918 64.4355 116.855 64.4355H118.074V63.7675C118.074 62.6035 117.57 62.0215 116.563 62.0215C115.625 62.0215 115.156 62.4825 115.156 63.4045H111.207C111.207 62.1778 111.728 61.1815 112.771 60.4155C113.814 59.6501 115.145 59.2675 116.762 59.2675C118.379 59.2675 119.657 59.6621 120.594 60.4515C121.531 61.2401 122.012 62.3221 122.035 63.6975V69.3105C122.051 70.4745 122.231 71.3651 122.574 71.9825V72.1815ZM116.152 69.6035C116.645 69.6035 117.053 69.4978 117.377 69.2865C117.701 69.0758 117.933 68.8378 118.074 68.5725V66.5445H116.926C115.551 66.5445 114.863 67.1618 114.863 68.3965C114.863 68.7558 114.984 69.0468 115.227 69.2695C115.469 69.4921 115.777 69.6035 116.152 69.6035ZM124.145 59.5015H127.848L127.977 60.9905C128.852 59.8418 130.059 59.2675 131.598 59.2675C132.918 59.2675 133.904 59.6621 134.557 60.4515C135.209 61.2401 135.547 62.4275 135.57 64.0135V72.1815H131.609V64.1775C131.609 63.5368 131.48 63.0661 131.223 62.7655C130.965 62.4648 130.496 62.3145 129.816 62.3145C129.043 62.3145 128.469 62.6191 128.094 63.2285V72.1815H124.145V59.5015ZM137.293 65.8885V65.7475C137.293 64.4668 137.504 63.3341 137.926 62.3495C138.348 61.3648 138.953 60.6051 139.742 60.0705C140.531 59.5351 141.449 59.2675 142.496 59.2675C143.817 59.2675 144.848 59.7128 145.59 60.6035L145.73 59.5015H149.316V71.7015C149.316 72.8181 149.056 73.7888 148.537 74.6135C148.018 75.4375 147.266 76.0701 146.281 76.5115C145.297 76.9528 144.156 77.1735 142.859 77.1735C141.93 77.1735 141.029 76.9978 140.158 76.6465C139.287 76.2951 138.621 75.8381 138.16 75.2755L139.813 72.9545C140.547 73.8218 141.516 74.2555 142.719 74.2555C144.469 74.2555 145.344 73.3571 145.344 71.5605V71.1615C144.586 71.9975 143.629 72.4155 142.473 72.4155C140.926 72.4155 139.676 71.8238 138.723 70.6405C137.77 69.4571 137.293 67.8731 137.293 65.8885ZM141.254 65.9945C141.254 67.0331 141.449 67.8551 141.84 68.4605C142.231 69.0665 142.777 69.3695 143.48 69.3695C144.332 69.3695 144.953 69.0841 145.344 68.5135V63.1815C144.961 62.6035 144.348 62.3145 143.504 62.3145C142.801 62.3145 142.25 62.6288 141.852 63.2575C141.453 63.8868 141.254 64.7991 141.254 65.9945ZM157.695 72.4155C155.75 72.4155 154.176 71.8355 152.973 70.6755C151.77 69.5155 151.168 68.0058 151.168 66.1465V65.8185C151.168 64.5211 151.408 63.3765 151.889 62.3845C152.369 61.3925 153.07 60.6248 153.992 60.0815C154.914 59.5388 156.008 59.2675 157.273 59.2675C159.054 59.2675 160.461 59.8201 161.492 60.9255C162.523 62.0308 163.039 63.5718 163.039 65.5485V67.0835H155.188C155.328 67.7948 155.636 68.3535 156.113 68.7595C156.59 69.1661 157.207 69.3695 157.965 69.3695C159.215 69.3695 160.192 68.9318 160.895 68.0565L162.699 70.1895C162.207 70.8688 161.51 71.4098 160.607 71.8125C159.705 72.2145 158.734 72.4155 157.695 72.4155ZM157.25 62.3145C156.094 62.3145 155.407 63.0801 155.188 64.6115H159.172V64.3065C159.187 63.6738 159.027 63.1835 158.691 62.8355C158.356 62.4881 157.875 62.3145 157.25 62.3145ZM172.367 59.4085L172.297 63.0765L170.996 62.9825C169.754 62.9825 168.957 63.3731 168.605 64.1545V72.1815H164.656V59.5015H168.359L168.488 61.1305C169.152 59.8885 170.078 59.2675 171.266 59.2675C171.687 59.2675 172.054 59.3145 172.367 59.4085ZM184.461 72.1815H180.512C180.371 71.9235 180.246 71.5445 180.137 71.0445C179.41 71.9585 178.395 72.4155 177.09 72.4155C175.895 72.4155 174.879 72.0541 174.043 71.3315C173.207 70.6088 172.789 69.7008 172.789 68.6075C172.789 67.2321 173.297 66.1931 174.313 65.4905C175.328 64.7871 176.805 64.4355 178.742 64.4355H179.961V63.7675C179.961 62.6035 179.457 62.0215 178.449 62.0215C177.512 62.0215 177.043 62.4825 177.043 63.4045H173.094C173.094 62.1778 173.615 61.1815 174.658 60.4155C175.701 59.6501 177.031 59.2675 178.648 59.2675C180.265 59.2675 181.543 59.6621 182.48 60.4515C183.418 61.2401 183.899 62.3221 183.922 63.6975V69.3105C183.937 70.4745 184.117 71.3651 184.461 71.9825V72.1815ZM178.039 69.6035C178.531 69.6035 178.939 69.4978 179.264 69.2865C179.588 69.0758 179.82 68.8378 179.961 68.5725V66.5445H178.813C177.438 66.5445 176.75 67.1618 176.75 68.3965C176.75 68.7558 176.871 69.0468 177.113 69.2695C177.356 69.4921 177.664 69.6035 178.039 69.6035ZM186.031 59.5015H189.734L189.863 60.9905C190.738 59.8418 191.945 59.2675 193.484 59.2675C194.805 59.2675 195.791 59.6621 196.443 60.4515C197.096 61.2401 197.434 62.4275 197.457 64.0135V72.1815H193.496V64.1775C193.496 63.5368 193.367 63.0661 193.109 62.7655C192.852 62.4648 192.383 62.3145 191.703 62.3145C190.93 62.3145 190.355 62.6191 189.98 63.2285V72.1815H186.031V59.5015ZM199.18 65.8885V65.7475C199.18 64.4668 199.391 63.3341 199.813 62.3495C200.234 61.3648 200.84 60.6051 201.629 60.0705C202.418 59.5351 203.336 59.2675 204.383 59.2675C205.703 59.2675 206.734 59.7128 207.477 60.6035L207.617 59.5015H211.203V71.7015C211.203 72.8181 210.943 73.7888 210.424 74.6135C209.905 75.4375 209.153 76.0701 208.168 76.5115C207.183 76.9528 206.043 77.1735 204.746 77.1735C203.817 77.1735 202.916 76.9978 202.045 76.6465C201.174 76.2951 200.508 75.8381 200.047 75.2755L201.699 72.9545C202.434 73.8218 203.402 74.2555 204.605 74.2555C206.355 74.2555 207.23 73.3571 207.23 71.5605V71.1615C206.473 71.9975 205.516 72.4155 204.359 72.4155C202.812 72.4155 201.562 71.8238 200.609 70.6405C199.656 69.4571 199.18 67.8731 199.18 65.8885ZM203.141 65.9945C203.141 67.0331 203.336 67.8551 203.727 68.4605C204.118 69.0665 204.664 69.3695 205.367 69.3695C206.219 69.3695 206.84 69.0841 207.23 68.5135V63.1815C206.847 62.6035 206.234 62.3145 205.391 62.3145C204.688 62.3145 204.137 62.6288 203.738 63.2575C203.34 63.8868 203.141 64.7991 203.141 65.9945Z" fill="#191919"/>
<defs>
<filter id="filter0_dd" x="0" y="0" width="270" height="130" filterUnits="userSpaceOnUse" color-interpolation-filters="sRGB">
<feFlood flood-opacity="0" result="BackgroundImageFix"/>
<feColorMatrix in="SourceAlpha" type="matrix" values="0 0 0 0 0 0 0 0 0 0 0 0 0 0 0 0 0 0 127 0"/>
<feOffset dx="9" dy="9"/>
<feGaussianBlur stdDeviation="8"/>
<feColorMatrix type="matrix" values="0 0 0 0 0.639216 0 0 0 0 0.694118 0 0 0 0 0.776471 0 0 0 0.5 0"/>
<feBlend mode="normal" in2="BackgroundImageFix" result="effect1_dropShadow"/>
<feColorMatrix in="SourceAlpha" type="matrix" values="0 0 0 0 0 0 0 0 0 0 0 0 0 0 0 0 0 0 127 0"/>
<feOffset dx="-9" dy="-9"/>
<feGaussianBlur stdDeviation="8"/>
<feColorMatrix type="matrix" values="0 0 0 0 1 0 0 0 0 1 0 0 0 0 1 0 0 0 0.5 0"/>
<feBlend mode="normal" in2="effect1_dropShadow" result="effect2_dropShadow"/>
<feBlend mode="normal" in="SourceGraphic" in2="effect2_dropShadow" result="shape"/>
</filter>
<linearGradient id="paint0_linear" x1="101" y1="25" x2="121" y2="105" gradientUnits="userSpaceOnUse">
<stop stop-color="#DBDBDB"/>
<stop offset="1" stop-color="white"/>
</linearGradient>
</defs>
</svg>
