<svg width="155" height="38" viewBox="0 0 155 38" fill="none" xmlns="http://www.w3.org/2000/svg">
<path d="M21.9443 33.271L21.5658 31.0843L20.9725 27.6571L32.0201 25.6805L33.0028 31.3533C33.1905 32.4403 33.1216 33.4439 32.7961 34.3644C32.4698 35.2855 31.9119 36.053 31.1222 36.6668C30.3326 37.2813 29.3868 37.6874 28.285 37.885C26.6538 38.1767 25.2642 37.9134 24.1164 37.0952C22.9686 36.277 22.2445 35.0022 21.9443 33.271ZM29.5014 29.6641L24.6777 30.527L25.0672 32.7726C25.1817 33.4365 25.4647 33.9079 25.9161 34.1867C26.3668 34.4649 26.948 34.5403 27.6598 34.4131C28.4408 34.273 29.0336 33.9823 29.4384 33.5411C29.8439 33.0991 29.9967 32.5685 29.8968 31.9493L29.5014 29.6641Z" fill="#DC143C"/>
<path fill-rule="evenodd" clip-rule="evenodd" d="M15.9791 14.143H12.983V13.1278H8.98823V19.2189H12.983V18.2037H15.9791V22.2644H5.99215V10.0823H15.9791V14.143ZM35.9529 24.2905C35.9529 26.4112 34.6209 28.3236 32.5788 28.8956C27.9284 30.198 23.032 30.8935 17.9765 30.8935C12.9209 30.8935 8.02448 30.198 3.37408 28.8956C1.33199 28.3236 0 26.4112 0 24.2905V5.00635C0 2.20445 2.23707 -0.0380865 4.99346 0.000490339L30.9595 0.367985C33.7158 0.406562 35.9529 2.71204 35.9529 5.51394V24.2905ZM29.9608 14.143H26.9647V13.1278H22.9699V19.2189H26.9647V18.2037H29.9608V22.2644H19.9738V10.0823H29.9608V14.143Z" fill="white"/>
<path d="M53.6717 15.9865V16.1896C53.6717 18.2991 53.2426 19.921 52.3844 21.0553C51.5262 22.189 50.3168 22.7558 48.7561 22.7558C47.4692 22.7558 46.4315 22.2363 45.6432 21.1975L45.4794 22.5182H41.9451V4.24496H45.8889V10.6812C46.6226 9.83251 47.5707 9.40817 48.7332 9.40817C50.3091 9.40817 51.5262 9.9831 52.3844 11.133C53.2426 12.2828 53.6717 13.9007 53.6717 15.9865ZM49.7159 15.9398C49.7159 14.702 49.5541 13.8195 49.2305 13.2923C48.9069 12.765 48.4096 12.5014 47.7385 12.5014C46.849 12.5014 46.2325 12.8462 45.8889 13.5359V18.6514C46.2245 19.3336 46.8486 19.6747 47.7615 19.6747C48.6902 19.6747 49.2795 19.2148 49.5291 18.2951C49.6536 17.843 49.7159 17.0579 49.7159 15.9398ZM66.4869 22.5182H62.5431C62.4026 22.2563 62.2778 21.8715 62.1686 21.364C61.4429 22.2918 60.4285 22.7558 59.1256 22.7558C57.9318 22.7558 56.9175 22.3889 56.0826 21.6553C55.2476 20.9217 54.8302 19.9999 54.8302 18.89C54.8302 17.4937 55.3375 16.439 56.3522 15.7256C57.3662 15.0116 58.8406 14.6546 60.7754 14.6546H61.9928V13.9765C61.9928 12.7948 61.4898 12.204 60.4838 12.204C59.547 12.204 59.0786 12.672 59.0786 13.608H55.1348C55.1348 12.3627 55.6554 11.3512 56.6967 10.5736C57.7387 9.79664 59.0673 9.40817 60.6825 9.40817C62.2977 9.40817 63.5734 9.80883 64.5095 10.6101C65.4456 11.4108 65.9253 12.5092 65.9486 13.9054V19.6036C65.9646 20.7853 66.144 21.6895 66.4869 22.3162V22.5182ZM60.0733 19.9011C60.5653 19.9011 60.9731 19.7938 61.2967 19.5793C61.6203 19.3654 61.8523 19.1238 61.9928 18.8544V16.7956H60.8463C59.4728 16.7956 58.786 17.4223 58.786 18.6758C58.786 19.0405 58.9072 19.336 59.1495 19.562C59.3912 19.7881 59.6991 19.9011 60.0733 19.9011ZM68.0559 9.64572H71.754L71.8829 11.1573C72.7564 9.99122 73.9618 9.40817 75.4991 9.40817C76.8174 9.40817 77.8024 9.80883 78.4543 10.6101C79.1054 11.4108 79.4426 12.6161 79.4659 14.2262V22.5182H75.5101V14.3927C75.5101 13.7423 75.3816 13.2645 75.1246 12.9593C74.8669 12.654 74.3986 12.5014 73.7195 12.5014C72.9471 12.5014 72.3739 12.8107 71.9997 13.4293V22.5182H68.0559V9.64572ZM81.1867 16.1297V15.9865C81.1867 14.6864 81.3974 13.5366 81.8188 12.537C82.2403 11.5373 82.8448 10.7661 83.6325 10.2234C84.4208 9.6799 85.3376 9.40817 86.3829 9.40817C87.7018 9.40817 88.7318 9.86026 89.4728 10.7645L89.6126 9.64572H93.1939V22.0309C93.1939 23.1645 92.9346 24.1499 92.416 24.9871C91.8973 25.8236 91.1463 26.4659 90.1629 26.914C89.1802 27.362 88.041 27.586 86.7454 27.586C85.8173 27.586 84.9181 27.4077 84.0479 27.051C83.1784 26.6943 82.5133 26.2304 82.0525 25.6592L83.7034 23.3029C84.4364 24.1835 85.4038 24.6237 86.6056 24.6237C88.3533 24.6237 89.2271 23.7117 89.2271 21.8878V21.4827C88.4701 22.3314 87.5144 22.7558 86.3599 22.7558C84.8146 22.7558 83.5662 22.1551 82.6148 20.9538C81.6627 19.7525 81.1867 18.1445 81.1867 16.1297ZM85.1425 16.2373C85.1425 17.2917 85.3376 18.1262 85.7277 18.7407C86.1179 19.3559 86.6638 19.6635 87.3656 19.6635C88.2165 19.6635 88.837 19.3739 89.2271 18.7945V13.3816C88.845 12.7948 88.2324 12.5014 87.3895 12.5014C86.6871 12.5014 86.1372 12.8205 85.7397 13.4587C85.3416 14.0976 85.1425 15.0238 85.1425 16.2373ZM101.562 22.7558C99.6192 22.7558 98.0473 22.167 96.8462 20.9894C95.6444 19.8117 95.0435 18.2792 95.0435 16.3916V16.0586C95.0435 14.7416 95.2835 13.5795 95.7636 12.5725C96.243 11.5654 96.943 10.7861 97.8638 10.2345C98.7846 9.68362 99.8769 9.40817 101.141 9.40817C102.92 9.40817 104.324 9.96922 105.354 11.0913C106.384 12.2135 106.899 13.7778 106.899 15.7845V17.3428H99.0583C99.1981 18.065 99.506 18.6321 99.9821 19.0443C100.458 19.4571 101.075 19.6635 101.832 19.6635C103.08 19.6635 104.055 19.2192 104.758 18.3306L106.559 20.496C106.068 21.1856 105.372 21.7348 104.47 22.1436C103.569 22.5517 102.6 22.7558 101.562 22.7558ZM101.118 12.5014C99.9631 12.5014 99.2766 13.2787 99.0583 14.8333H103.037V14.5237C103.052 13.8814 102.892 13.3836 102.557 13.0303C102.222 12.6777 101.742 12.5014 101.118 12.5014ZM116.215 9.55131L116.145 13.275L114.846 13.1796C113.605 13.1796 112.809 13.5762 112.458 14.3694V22.5182H108.514V9.64572H112.212L112.341 11.2994C113.004 10.0386 113.929 9.40817 115.115 9.40817C115.536 9.40817 115.903 9.45588 116.215 9.55131ZM128.293 22.5182H124.349C124.209 22.2563 124.084 21.8715 123.975 21.364C123.249 22.2918 122.235 22.7558 120.932 22.7558C119.738 22.7558 118.724 22.3889 117.889 21.6553C117.054 20.9217 116.636 19.9999 116.636 18.89C116.636 17.4937 117.144 16.439 118.158 15.7256C119.172 15.0116 120.647 14.6546 122.581 14.6546H123.799V13.9765C123.799 12.7948 123.296 12.204 122.289 12.204C121.353 12.204 120.885 12.672 120.885 13.608H116.941C116.941 12.3627 117.461 11.3512 118.503 10.5736C119.545 9.79664 120.873 9.40817 122.488 9.40817C124.103 9.40817 125.378 9.80883 126.315 10.6101C127.251 11.4108 127.731 12.5092 127.755 13.9054V19.6036C127.77 20.7853 127.949 21.6895 128.293 22.3162V22.5182ZM121.879 19.9011C122.371 19.9011 122.779 19.7938 123.103 19.5793C123.426 19.3654 123.658 19.1238 123.799 18.8544V16.7956H122.652C121.279 16.7956 120.592 17.4223 120.592 18.6758C120.592 19.0405 120.713 19.336 120.955 19.562C121.197 19.7881 121.505 19.9011 121.879 19.9011ZM129.861 9.64572H133.559L133.688 11.1573C134.562 9.99122 135.768 9.40817 137.304 9.40817C138.623 9.40817 139.608 9.80883 140.259 10.6101C140.911 11.4108 141.249 12.6161 141.272 14.2262V22.5182H137.316V14.3927C137.316 13.7423 137.187 13.2645 136.93 12.9593C136.673 12.654 136.205 12.5014 135.526 12.5014C134.753 12.5014 134.18 12.8107 133.805 13.4293V22.5182H129.861V9.64572ZM142.993 16.1297V15.9865C142.993 14.6864 143.203 13.5366 143.625 12.537C144.046 11.5373 144.65 10.7661 145.439 10.2234C146.227 9.6799 147.144 9.40817 148.189 9.40817C149.507 9.40817 150.537 9.86026 151.279 10.7645L151.419 9.64572H155V22.0309C155 23.1645 154.741 24.1499 154.222 24.9871C153.703 25.8236 152.952 26.4659 151.969 26.914C150.986 27.362 149.846 27.586 148.551 27.586C147.623 27.586 146.724 27.4077 145.854 27.051C144.984 26.6943 144.319 26.2304 143.859 25.6592L145.508 23.3029C146.242 24.1835 147.21 24.6237 148.411 24.6237C150.158 24.6237 151.032 23.7117 151.032 21.8878V21.4827C150.276 22.3314 149.32 22.7558 148.165 22.7558C146.62 22.7558 145.372 22.1551 144.42 20.9538C143.468 19.7525 142.993 18.1445 142.993 16.1297ZM146.949 16.2373C146.949 17.2917 147.144 18.1262 147.534 18.7407C147.924 19.3559 148.47 19.6635 149.172 19.6635C150.023 19.6635 150.643 19.3739 151.032 18.7945V13.3816C150.65 12.7948 150.038 12.5014 149.196 12.5014C148.493 12.5014 147.943 12.8205 147.545 13.4587C147.147 14.0976 146.949 15.0238 146.949 16.2373Z" fill="#1E90FF"/>
</svg>
