<svg width="41" height="40" viewBox="0 0 41 40" fill="none" xmlns="http://www.w3.org/2000/svg">
<path d="M20.02 0C8.97999 0 0.0399933 8.96 0.0399933 20C0.0399933 31.04 8.97999 40 20.02 40C31.08 40 40.04 31.04 40.04 20C40.04 8.96 31.08 0 20.02 0ZM20.04 36C11.2 36 4.03999 28.84 4.03999 20C4.03999 11.16 11.2 4 20.04 4C28.88 4 36.04 11.16 36.04 20C36.04 28.84 28.88 36 20.04 36ZM27.04 18C28.7 18 30.04 16.66 30.04 15C30.04 13.34 28.7 12 27.04 12C25.38 12 24.04 13.34 24.04 15C24.04 16.66 25.38 18 27.04 18ZM13.04 18C14.7 18 16.04 16.66 16.04 15C16.04 13.34 14.7 12 13.04 12C11.38 12 10.04 13.34 10.04 15C10.04 16.66 11.38 18 13.04 18ZM20.04 31C24.7 31 28.66 28.08 30.26 24H9.81999C11.42 28.08 15.38 31 20.04 31Z" fill="white"/>
</svg>
